<svg id="Capa_1" enable-background="new 0 0 512 512" height="512" viewBox="0 0 512 512" width="512" xmlns="http://www.w3.org/2000/svg"><g><path d="m512 256c0 38.92-8.69 75.8-24.23 108.83-69.53 58.33-129.31 96.483-231.77 96.483-62.88 0-120.46-22.67-165.02-60.3-28.05-23.67-50.95-2.583-66.75-36.183-15.54-33.03-24.23-69.91-24.23-108.83 0-141.38 114.62-256 256-256s256 114.62 256 256z" fill="#78d090"/><g><circle cx="77.08" cy="96.745" fill="#365e7d" r="74.597"/><circle cx="77.08" cy="96.745" fill="#2b4d66" r="42.364"/><circle cx="434.92" cy="96.745" fill="#365e7d" r="74.597"/><circle cx="434.92" cy="96.745" fill="#2b4d66" r="42.364"/></g><path d="m487.77 364.83c-40.9 86.96-129.31 147.17-231.77 147.17s-190.87-60.21-231.77-147.17c32.91-51.2 90.38-85.11 155.77-85.11h152c51.1 0 97.36 20.71 130.86 54.2 9.36 9.36 17.72 19.73 24.91 30.91z" fill="#365e7d"/><path d="m383.182 388.58-53.441-82.556h-147.482l-53.441 82.556c-9.03 13.949-5.042 32.576 8.907 41.606 13.949 9.03 32.576 5.042 41.606-8.907 3.162-4.885 10.745-1.832 9.64 3.881l-.676 3.493c-3.155 16.314 7.513 32.097 23.827 35.252 16.314 3.155 32.097-7.513 35.252-23.827l3.429-17.731c1.106-5.717 9.288-5.717 10.394 0l3.429 17.731c3.155 16.314 18.938 26.982 35.252 23.827 16.314-3.155 26.982-18.938 23.827-35.252l-.676-3.493c-1.105-5.713 6.478-8.766 9.64-3.881 9.03 13.949 27.657 17.937 41.606 8.907 13.949-9.03 17.937-27.657 8.907-41.606z" fill="#2b4d66"/><path d="m275.6 279.72c-97.81 0-177.91 75.87-184.62 171.98-28.05-23.67-50.95-53.27-66.75-86.87 32.91-51.2 90.39-85.11 155.78-85.11z" fill="#2b4d66"/><path d="m317.374 61.572h-122.748c-82.544 0-149.459 66.915-149.459 149.459 0 82.544 66.915 149.459 149.459 149.459h122.748c82.544 0 149.459-66.915 149.459-149.459 0-82.544-66.915-149.459-149.459-149.459z" fill="#ebebeb"/><path d="m166.142 316.716c27.048 27.048 64.412 43.771 105.685 43.771h-77.194c-41.273 0-78.637-16.722-105.685-43.771s-43.781-64.413-43.781-105.685c0-82.545 66.92-149.455 149.466-149.455h77.194c-82.545 0-149.466 66.91-149.466 149.455 0 41.272 16.733 78.636 43.781 105.685z" fill="#d5dff4"/><g><path d="m231.261 220.493-40.437 40.437c-14.768 14.768-36.005 19.116-54.588 13.043-7.765-2.529-15.071-6.877-21.237-13.043l-13.117-13.117c-20.934-20.945-20.934-54.891 0-75.825l40.437-40.437c2.09-2.09 4.316-3.972 6.637-5.654 20.955-15.081 50.345-13.2 69.188 5.654l13.117 13.106c20.945 20.945 20.945 54.891 0 75.836z" fill="#365e7d"/><g><g><g><circle cx="178.806" cy="187.005" fill="#fff" r="39.131"/><circle cx="178.806" cy="187.005" fill="#2b4d66" r="27.67"/></g></g></g><path d="m280.737 220.49 40.437 40.437c20.939 20.939 54.889 20.939 75.828 0l13.114-13.114c20.939-20.939 20.939-54.889 0-75.828l-40.437-40.437c-20.939-20.939-54.889-20.939-75.828 0l-13.114 13.114c-20.939 20.939-20.939 54.889 0 75.828z" fill="#365e7d"/><g><g><g><circle cx="333.194" cy="187.005" fill="#fff" r="39.131"/><circle cx="333.194" cy="187.005" fill="#2b4d66" r="27.67"/></g></g></g></g><path d="m122.358 211.035c0 22.492 4.964 43.812 13.879 62.938-7.765-2.529-15.071-6.877-21.237-13.043l-13.117-13.117c-20.934-20.945-20.934-54.891 0-75.825l40.437-40.437c2.09-2.09 4.316-3.972 6.637-5.654-16.765 24.164-26.599 53.501-26.599 85.138z" fill="#2b4d66"/><path d="m272.595 345.997h-33.191c-38.619 0-69.926-31.307-69.926-69.926 0-38.619 31.307-69.926 69.926-69.926h33.191c38.619 0 69.926 31.307 69.926 69.926 0 38.62-31.307 69.926-69.926 69.926z" fill="#d5dff4"/><path d="m274.568 345.971c-.658.021-1.317.031-1.975.031h-33.194c-38.618 0-69.92-31.302-69.92-69.93 0-19.314 7.828-36.789 20.474-49.446 12.657-12.646 30.131-20.474 49.446-20.474h33.194c.658 0 1.317.01 1.975.031-18.53.502-35.263 8.225-47.481 20.443-12.657 12.657-20.485 30.131-20.485 49.446 0 37.97 30.247 68.864 67.966 69.899z" fill="#d8e2f1"/><path d="m265.949 276.12h-19.898c-15.066 0-27.279-12.213-27.279-27.279 0-15.066 12.213-27.279 27.279-27.279h19.898c15.066 0 27.279 12.213 27.279 27.279-.001 15.066-12.214 27.279-27.279 27.279z" fill="#365e7d"/><path d="m263.992 276.121h-17.94c-15.07 0-27.28-12.21-27.28-27.28 0-7.53 3.05-14.35 7.99-19.29 4.93-4.93 11.75-7.99 19.29-7.99h17.94c-7.53 0-14.35 3.06-19.29 7.99-4.93 4.94-7.99 11.76-7.99 19.29 0 15.07 12.22 27.28 27.28 27.28z" fill="#2b4d66"/></g></svg>